<?xml version="1.0" standalone="no"?>
<!DOCTYPE svg PUBLIC "-//W3C//DTD SVG 20010904//EN"
 "http://www.w3.org/TR/2001/REC-SVG-20010904/DTD/svg10.dtd">
<svg version="1.0" xmlns="http://www.w3.org/2000/svg"
 width="512.000000pt" height="512.000000pt" viewBox="0 0 512.000000 512.000000"
 preserveAspectRatio="xMidYMid meet">
<metadata>
Created by potrace 1.11, written by Peter Selinger 2001-2013
</metadata>
<g transform="translate(0.000000,512.000000) scale(0.100000,-0.100000)"
fill="#000000" stroke="none">
<path d="M1010 4590 l0 -320 160 0 160 0 0 320 0 320 -160 -1 -160 0 0 -319z"/>
<path d="M3458 4903 c0 -5 -2 -149 -3 -320 l-2 -313 159 0 158 0 0 45 c1 25 1
155 1 290 0 135 0 259 -1 275 l0 30 -155 0 c-85 0 -156 -3 -157 -7z"/>
<path d="M62 4690 c-4 -3 -8 -911 -7 -2017 l0 -2013 957 0 957 0 -1 160 0 159
-786 0 c-433 0 -792 0 -797 1 -7 0 -10 406 -10 1220 l0 1220 2017 0 2018 0 0
-370 c0 -203 3 -370 8 -371 9 -1 272 -1 295 0 16 1 17 56 17 1006 0 553 -3
1006 -7 1006 -5 1 -124 2 -265 3 -167 1 -258 -2 -259 -9 -6 -83 -2 -298 6
-304 6 -4 54 -6 108 -5 l97 1 0 -318 0 -319 -2018 0 -2017 0 0 318 0 317 102
0 c57 0 104 2 105 5 4 16 4 310 -1 311 -20 4 -514 3 -519 -1z"/>
<path d="M1650 4535 l0 -160 733 1 c403 0 738 3 743 7 8 4 12 245 5 302 -1 7
-255 10 -741 10 l-740 0 0 -160z"/>
<path d="M2079 3100 c-5 -17 -5 -310 0 -312 3 0 75 -2 159 -3 l152 -2 -2 160
-3 160 -153 1 c-83 1 -153 -1 -153 -4z"/>
<path d="M2733 3102 c-23 -3 -23 -5 -23 -161 l0 -157 160 0 160 0 0 158 c0
151 -1 158 -20 159 -71 3 -259 3 -277 1z"/>
<path d="M3538 2785 c-2 -1 -34 -5 -72 -9 -189 -18 -402 -146 -514 -308 -104
-152 -150 -343 -128 -528 23 -181 129 -367 275 -482 l34 -26 -39 -12 c-22 -7
-73 -31 -114 -53 -359 -189 -610 -529 -674 -912 -14 -82 -21 -165 -17 -206 1
-14 20 -16 150 -15 82 1 153 5 158 9 4 5 9 27 10 50 8 159 66 333 159 474 54
82 186 212 270 266 159 103 301 147 489 153 151 5 261 -14 390 -65 338 -135
580 -469 598 -826 l3 -60 157 -1 c135 0 157 2 158 15 3 32 -1 107 -6 136 -2
17 -7 48 -11 70 -46 317 -263 649 -545 836 -78 52 -203 117 -258 134 l-24 7
29 23 c281 223 367 603 208 918 -112 221 -333 378 -566 402 -105 11 -117 12
-120 10z"/>
<path d="M589 2445 c-6 -106 0 -288 8 -293 8 -5 272 -7 303 -3 3 1 6 72 5 158
l0 158 -157 0 c-152 0 -158 0 -159 -20z"/>
<path d="M1330 2309 c0 -117 3 -158 13 -161 10 -3 213 -2 285 1 l23 1 -3 157
-3 158 -157 0 -158 1 0 -157z"/>
<path d="M2080 2460 c-10 -6 -9 -303 1 -310 4 -3 74 -5 156 -4 l148 0 3 160 2
159 -151 0 c-83 0 -154 -2 -159 -5z"/>
<path d="M589 1823 c0 -5 -2 -77 -2 -161 l-2 -152 160 0 160 0 0 158 0 157
-157 3 c-87 1 -158 -1 -159 -5z"/>
<path d="M1330 1670 l0 -160 160 0 160 0 0 160 0 160 -160 0 -160 0 0 -160z"/>
<path d="M2079 1828 c-1 -2 -3 -74 -4 -160 l-3 -158 159 0 159 0 0 160 0 160
-155 0 c-85 0 -156 -1 -156 -2z"/>
</g>
</svg>
