<?xml version="1.0" standalone="no"?>
<!DOCTYPE svg PUBLIC "-//W3C//DTD SVG 20010904//EN"
 "http://www.w3.org/TR/2001/REC-SVG-20010904/DTD/svg10.dtd">
<svg version="1.0" xmlns="http://www.w3.org/2000/svg"
 width="700.000000pt" height="700.000000pt" viewBox="0 0 700.000000 700.000000"
 preserveAspectRatio="xMidYMid meet">
<metadata>
Created by potrace 1.11, written by Peter Selinger 2001-2013
</metadata>
<g transform="translate(0.000000,700.000000) scale(0.100000,-0.100000)"
fill="#000000" stroke="none">
<path d="M4025 6795 c-308 -56 -554 -203 -737 -441 -57 -75 -129 -205 -161
-289 -40 -107 -68 -265 -69 -391 l-1 -121 -66 23 c-101 34 -183 54 -290 70
-25 4 -55 8 -66 10 -34 7 -237 6 -300 0 -235 -25 -453 -99 -657 -224 -233
-141 -449 -380 -566 -624 -43 -90 -90 -214 -98 -258 -4 -19 -10 -42 -14 -50
-4 -8 -11 -35 -14 -60 -3 -25 -11 -72 -17 -105 -11 -59 -15 -319 -5 -361 2
-12 7 -45 11 -75 8 -71 39 -191 71 -281 25 -70 121 -268 134 -278 4 -3 13 -16
20 -30 26 -49 129 -176 205 -253 185 -185 414 -319 661 -388 l80 -23 -19 -105
c-20 -111 -28 -409 -15 -521 9 -72 37 -231 44 -250 3 -8 14 -44 24 -80 118
-426 417 -823 807 -1073 135 -87 362 -191 473 -217 19 -5 60 -16 90 -24 63
-18 86 -23 219 -41 111 -15 427 -13 511 4 30 5 69 12 85 15 17 2 59 12 95 21
36 8 74 18 85 20 11 3 52 16 90 31 39 14 79 28 90 31 11 4 72 32 135 64 440
221 771 592 941 1054 35 94 85 289 93 360 3 28 9 64 12 80 11 50 7 396 -4 460
-6 33 -14 78 -17 101 -3 22 -18 87 -34 145 -168 611 -607 1087 -1201 1302
-127 47 -246 76 -375 93 -27 3 -53 8 -56 10 -3 2 -47 4 -96 5 -50 1 -95 4
-101 8 -5 3 -12 40 -16 83 -9 117 -31 253 -47 295 l-9 25 57 -8 c73 -11 312
-11 378 -1 126 20 297 82 382 139 23 15 45 28 49 28 4 0 40 25 80 55 291 223
464 591 447 950 -4 80 -15 168 -28 215 -3 14 -8 36 -11 49 -9 45 -77 204 -112
265 -167 287 -438 481 -767 551 -100 21 -307 26 -400 10z"/>
</g>
</svg>
