<?xml version="1.0" encoding="UTF-8"?>
<svg width="127px" height="54px" viewBox="0 0 127 54" version="1.1" xmlns="http://www.w3.org/2000/svg" xmlns:xlink="http://www.w3.org/1999/xlink">
    <title>Trees</title>
    <g stroke="none" stroke-width="1" fill="none" fill-rule="evenodd">
        <g transform="translate(-873.000000, 0.000000)" fill-rule="nonzero">
            <g id="content">
                <g>
                    <g transform="translate(872, 0)">
                        <path d="M69.3679865,29.7025485 L69.2990075,29.653053 C69.2780075,29.636703 69.2584955,29.6221545 69.2360075,29.6021985 C69.192491,29.5617 69.1490045,29.5218045 69.105488,29.4806985 L68.9765135,29.35545 L68.8520015,29.2267545 C68.688494,29.0533545 68.5325105,28.872903 68.379503,28.6900545 C68.073488,28.3239015 67.785497,27.9434985 67.505003,27.5585985 C67.224509,27.1736985 66.9529985,26.78115 66.6890105,26.38545 C66.421991,25.9892985 66.1640135,25.59045 65.911985,25.1836485 C65.8834895,25.135647 65.898509,25.0727985 65.9450015,25.0431 C65.953985,25.038 65.962997,25.034253 65.972009,25.0316985 L65.973497,25.031097 L66.990506,24.74805 L68.0090015,24.466647 L67.9775015,24.687003 C67.760006,24.5538015 67.5710075,24.391653 67.3939955,24.2221515 C67.215497,24.0520485 67.0519895,23.87115 66.8944895,23.6868 C66.735503,23.50215 66.584012,23.313 66.4385,23.1196485 C66.292988,22.9267515 66.150509,22.731 66.012494,22.5327 C65.736491,22.1367015 65.4725045,21.7323 65.2189895,21.3229515 C64.9639865,20.9133 64.719512,20.4995985 64.485509,20.0753985 C64.448,20.00745 64.4720045,19.9221015 64.541012,19.8846015 C64.554488,19.8771015 64.567991,19.872003 64.583012,19.8693015 L64.5845,19.8691515 L65.4305045,19.7211 L66.276509,19.57635 L66.2119925,19.811547 C65.7275075,19.3829985 65.286509,18.905997 64.906994,18.3861 C64.713503,18.1287015 64.536491,17.8593 64.3684925,17.5849485 L64.245497,17.37795 L64.1285105,17.167797 C64.0879985,17.0982 64.052006,17.0265 64.0144985,16.95555 C63.976991,16.88445 63.9395105,16.81365 63.9050075,16.7413485 C63.6185045,16.1674485 63.3800105,15.5713515 63.177506,14.9641485 C63.0769985,14.6604015 62.9885075,14.3530485 62.9104865,14.0429985 C62.8324955,13.7324985 62.760512,13.4218485 62.712503,13.1027985 L62.825,13.1027985 C62.771012,13.4210985 62.695997,13.73055 62.6135135,14.039697 C62.531,14.34825 62.4379895,14.65395 62.334506,14.9560485 C62.230994,15.2581515 62.115494,15.5559015 61.9925,15.8505015 C61.867988,16.14465 61.736009,16.4356485 61.5890105,16.7194515 C61.2964985,17.28735 60.964991,17.8366485 60.579497,18.3483 C60.4865135,18.4783515 60.3830015,18.6004485 60.2840105,18.7265985 L60.1279985,18.9093 L60.0500075,19.0004985 L59.969012,19.08885 L59.8055045,19.26525 L59.6345015,19.4350485 L59.5505015,19.51995 L59.4620105,19.6011 L59.283512,19.764003 L59.2490075,19.6383 L60.9439925,19.919253 C60.992,19.927353 61.024988,19.9732515 61.0174925,20.022003 C61.016003,20.0319 61.0129985,20.0410485 61.0085075,20.0496 L61.006991,20.0509515 C60.777509,20.4758985 60.537497,20.8918485 60.288503,21.3047985 C60.0395075,21.71685 59.782988,22.125 59.5099895,22.5237015 C59.375006,22.7233515 59.235503,22.9206 59.0915075,23.11515 C58.947512,23.3097 58.8005135,23.5015485 58.6445015,23.6879985 C58.4870015,23.8743015 58.3264985,24.0573 58.149488,24.229797 C57.9739925,24.4015515 57.7879985,24.566547 57.569015,24.703347 L57.532994,24.4482 L59.574506,24.9858 C59.6540135,25.0068 59.7019925,25.088547 59.680994,25.168347 C59.6779895,25.1821515 59.6720105,25.194897 59.664515,25.2065985 L59.664515,25.2078 C59.4170075,25.61865 59.165009,26.021697 58.9055135,26.4230985 C58.647506,26.8238985 58.382003,27.2205015 58.107488,27.612147 C57.833,28.0036515 57.5509895,28.390197 57.2524985,28.7661 C57.1024955,28.953897 56.946512,29.1385485 56.7844925,29.3182485 C56.6225015,29.4977985 56.4514985,29.6724 56.2610105,29.8345485 L56.185994,29.5417515 C56.6540015,29.632353 57.1265,29.7141 57.598997,29.7898515 C58.073012,29.864553 58.545509,29.9368515 59.0210105,30.0000015 C59.4949955,30.064947 59.9704985,30.1186485 60.446,30.1664985 C60.9215015,30.2140485 61.3984925,30.2476515 61.8755105,30.275403 L61.8784865,30.2755455 C61.9595105,30.2803515 62.0225105,30.3486015 62.0225105,30.429447 L62.007491,32.76375 L61.867988,32.623803 L63.668,32.6388015 L63.543488,32.76375 L63.5660045,30.4294485 L63.5660045,30.428847 C63.5674925,30.3744015 63.6094925,30.3302985 63.6635075,30.327603 C63.902003,30.3160515 64.1420135,30.3089985 64.380509,30.291897 C64.5005,30.2844015 64.620491,30.2784 64.7389955,30.269253 L65.0975105,30.2418015 C65.5745,30.201897 66.053006,30.154797 66.5299955,30.099 C67.005497,30.044097 67.482488,29.981397 67.9565015,29.9142 C68.194997,29.880003 68.432003,29.8444485 68.6690105,29.8075485 L69.026009,29.751 L69.2029925,29.721603 L69.291512,29.7064545 L69.336488,29.69865 L69.346988,29.6969985 C69.3485045,29.6966985 69.3499925,29.6966985 69.351509,29.6971485 C69.356,29.6982 69.360491,29.701053 69.3679865,29.7025485 Z M69.3994865,29.7103515 C69.390503,29.7147 69.381491,29.7204015 69.369503,29.7242985 C69.3634955,29.7262515 69.359003,29.7277455 69.3529955,29.728947 L69.3424955,29.73135 L69.297491,29.7408 L69.210488,29.759397 L69.0335045,29.7960045 L68.6795105,29.86665 C68.443991,29.9128485 68.207012,29.9559 67.970006,29.9985 C67.4975075,30.08325 67.022006,30.158703 66.5465045,30.2285985 C66.069515,30.300003 65.592497,30.3576015 65.113991,30.410703 C64.6355135,30.463503 64.154003,30.5020485 63.6724925,30.531303 L63.7699955,30.42945 L63.794,32.76375 C63.794,32.832 63.7384955,32.888097 63.6710045,32.8886985 L63.6710045,32.8886985 L63.668,32.8886985 L61.867988,32.9037014 C61.7915135,32.9042985 61.7285135,32.8428 61.7285135,32.766003 L61.7285135,32.765703 L61.7285135,32.76375 L61.7134925,30.4294485 L61.8620075,30.5835 C61.377494,30.56235 60.896012,30.53085 60.4159895,30.485853 C59.9359955,30.4408485 59.4560015,30.3897015 58.9774955,30.327603 C58.4989895,30.2659485 58.022,30.2001015 57.5464985,30.122847 C57.069509,30.0459 56.595494,29.963703 56.1199925,29.8709985 C56.0300135,29.853303 55.9699895,29.7653985 55.9880135,29.674653 C55.995509,29.63595 56.016509,29.6030985 56.043488,29.579403 L56.0450045,29.5782015 C56.2174955,29.431503 56.3794865,29.2654485 56.5369865,29.0931015 C56.6929985,28.920153 56.8444895,28.7401515 56.9930045,28.5576045 C57.288491,28.1915985 57.5705015,27.8117985 57.8435,27.426147 C58.1179865,27.040353 58.3834895,26.6482485 58.6445,26.2523985 C58.9039955,25.8565545 59.160485,25.4562045 59.4065045,25.0534515 L59.496512,25.275453 L57.4594925,24.7189485 L57.4594925,24.7189485 C57.3845045,24.6983985 57.3409895,24.6213015 57.3605015,24.5466 C57.3710015,24.5107515 57.3934895,24.4818045 57.4235015,24.4638015 C57.613988,24.3475515 57.792488,24.196053 57.9604865,24.0347985 C58.1300015,23.87295 58.2889895,23.6973015 58.441997,23.5177515 C58.5964925,23.33805 58.7450075,23.152953 58.890491,22.963503 C59.0344865,22.7745 59.175506,22.5822 59.3134925,22.386903 C59.5894955,21.997053 59.8535105,21.5983515 60.108485,21.1941 C60.363488,20.7897015 60.612512,20.379453 60.8494895,19.9647 L60.9124895,20.0964 L59.223485,19.7805 C59.1844895,19.77315 59.158997,19.7352 59.166494,19.69575 C59.1694985,19.6794015 59.1785105,19.66515 59.1890105,19.6548 L59.367509,19.4979015 L59.456,19.4192985 L59.54,19.3371015 L59.7110045,19.1727 L59.874512,19.00155 L59.9569955,18.9159015 L60.0349865,18.8270985 L60.1924865,18.64935 C60.291506,18.5266485 60.3949895,18.40665 60.4880015,18.2792985 C60.683009,18.0292485 60.859991,17.7669 61.0295075,17.4997485 C61.2019985,17.2330515 61.355006,16.9550985 61.5004895,16.6743 C61.793,16.1112 62.038991,15.5249985 62.241494,14.9243985 C62.3434895,14.6240985 62.4350135,14.3202 62.5144925,14.0135985 C62.5564925,13.8604485 62.590997,13.7059485 62.624012,13.5513 C62.657,13.3967985 62.6885,13.24035 62.7125045,13.0861485 C62.716997,13.0549485 62.7454925,13.0334985 62.7769925,13.0381515 C62.8025135,13.0419 62.820509,13.0615515 62.825,13.0852515 L62.825,13.0861485 C62.850491,13.2399 62.8835075,13.3959 62.918012,13.5497985 C62.954003,13.704 62.991512,13.8577485 63.0349985,14.0101485 C63.1189985,14.3155515 63.213497,14.6178015 63.318497,14.9161485 C63.423497,15.21465 63.540512,15.5090985 63.666512,15.7987485 C63.7939985,16.0882485 63.9290105,16.374 64.078985,16.6523985 C64.373012,17.2102485 64.7119865,17.74425 65.097509,18.24165 C65.1904925,18.3678 65.2954925,18.4863 65.394512,18.608247 L65.5504955,18.784497 L65.6284865,18.8724 L65.709512,18.9573 L65.871503,19.1273985 L66.0409895,19.2910485 L66.1249895,19.3726485 L66.213509,19.450947 L66.387488,19.6071 L66.3890045,19.6081515 C66.4445075,19.6578 66.449,19.7435985 66.4009925,19.7994 C66.3785045,19.8228 66.351497,19.8372015 66.3230015,19.8424515 L65.4785135,19.9962 L64.632509,20.14635 L64.7315,19.9404015 C64.847,20.14755 64.966991,20.35545 65.0884985,20.5611 C65.210006,20.76705 65.3315135,20.9724 65.4575135,21.1759485 C65.7065075,21.58305 65.964485,21.98535 66.235997,22.3779 C66.371009,22.5745485 66.510512,22.7683515 66.652991,22.9588485 C66.7940105,23.14965 66.9410105,23.3376015 67.0925015,23.5191015 C67.2439925,23.7006015 67.4014925,23.8780485 67.569491,24.04245 C67.736003,24.20595 67.911497,24.360303 68.1035015,24.48015 L68.1049895,24.4816515 C68.162009,24.51705 68.1784895,24.59145 68.1440135,24.6478485 C68.1259895,24.675 68.100497,24.6929955 68.0720015,24.7004985 L67.0505015,24.9661515 L66.0275135,25.2302955 L66.088997,25.0775955 C66.2105045,25.2808515 66.3335,25.4837985 66.458012,25.68585 C66.5810075,25.888053 66.7070075,26.089497 66.834494,26.2898985 C67.088009,26.691 67.3505075,27.0873015 67.6160105,27.4798485 C67.8844895,27.8719515 68.1604925,28.257753 68.4499985,28.6336485 C68.593994,28.821153 68.743997,29.005353 68.900009,29.184453 L69.0169955,29.317497 L69.138503,29.4472515 C69.180503,29.4898515 69.222503,29.5312515 69.2629865,29.5734015 C69.285503,29.5942515 69.310994,29.6180985 69.3335105,29.6415015 L69.3994865,29.7103515 Z" stroke="#b2ebf9" stroke-width="0.2" fill="#b2ebf9" />
                        <polygon fill="#b2ebf9" points="62.697512 -2.34095296e-12 62.997512 -2.34095296e-12 62.997512 13.26645 62.697512 13.26645" />
                        <path d="M127.323512,49.55505 C125.607499,48.1030515 122.835511,43.484403 122.835511,43.484403 L125.541494,42.758397 C123.693502,41.636697 120.98749,36.6879 120.98749,36.6879 L123.231505,36.2918985 C119.338997,32.9266485 118.547009,27.515847 118.547009,27.515847 C118.547009,27.515847 117.754993,32.92665 113.862514,36.2918985 L116.1065,36.6879 C116.1065,36.6879 113.400488,41.636697 111.552496,42.758397 L114.258508,43.484403 C114.258508,43.484403 111.486491,48.103053 109.770506,49.55505 C109.770506,49.55505 113.755997,50.352603 117.35299,50.51385 L117.35299,53.6115015 L119.741,53.6115015 L119.741,50.51385 C123.339509,50.352603 127.323512,49.55505 127.323512,49.55505 Z" fill="#aea1ea" />
                        <polygon fill="#aea1ea" points="118.461493 -3.32994115e-12 118.761493 -3.32994115e-12 118.761493 27.983853 118.461493 27.983853" />
                        <path d="M15.5924895,41.17115 C14.1749955,39.9725 11.886006,36.1587515 11.886006,36.1587515 L14.121009,35.5595 C12.595512,34.6332515 10.360509,30.5469515 10.360509,30.5469515 L12.214509,30.2201015 C9.000006,27.4415015 8.3444895,22.9739 8.3444895,22.9739 C8.3444895,22.9739 7.6920045,27.4415 4.4775015,30.2201015 L6.328497,30.5469515 C6.328497,30.5469515 4.0964985,34.63325 2.5695135,35.5595 L4.804488,36.1587515 C4.804488,36.1587515 2.5154985,39.9724985 1.0994925,41.17115 C1.0994925,41.17115 4.3890105,41.8298 7.3590105,41.9631485 L7.3590105,44.5203485 L9.3315135,44.5203485 L9.3315135,41.9631485 C12.301512,41.8298 15.5924895,41.17115 15.5924895,41.17115 Z" fill="#8c54a1" />
                        <polygon fill="#8c54a1" points="8.2739925 6.3024135e-13 8.5739925 6.3024135e-13 8.5739925 23.3601515 8.2739925 23.3601515" />
                    </g>
                </g>
            </g>
        </g>
    </g>
</svg>
